<svg width="32" height="32" viewBox="0 0 32 32" xmlns="http://www.w3.org/2000/svg">
  <defs>
    <linearGradient id="shieldGradient" x1="0%" y1="0%" x2="100%" y2="100%">
      <stop offset="0%" style="stop-color:#4CAF50;stop-opacity:1" />
      <stop offset="100%" style="stop-color:#2E7D32;stop-opacity:1" />
    </linearGradient>
  </defs>
  
  <!-- Shield background -->
  <path d="M16 2 L28 8 L28 18 Q28 24 16 30 Q4 24 4 18 L4 8 Z" fill="url(#shieldGradient)" stroke="#1B5E20" stroke-width="1"/>
  
  <!-- Dollar sign -->
  <path d="M16 6 L16 26 M12 10 Q12 8 14 8 L18 8 Q20 8 20 10 Q20 12 18 12 L14 12 Q12 12 12 14 Q12 16 14 16 L18 16 Q20 16 20 18 Q20 20 18 20 L14 20 Q12 20 12 22" 
        stroke="white" stroke-width="2" fill="none" stroke-linecap="round"/>
  
  <!-- Highlight -->
  <ellipse cx="12" cy="8" rx="2" ry="1" fill="rgba(255,255,255,0.4)"/>
</svg>
